# MagicaVoxel @ ephtracy

# material
mtllib pressstation-Presser.mtl
usemtl palette

# normals
vn -1 0 0
vn 1 0 0
vn 0 0 1
vn 0 0 -1
vn 0 -1 0
vn 0 1 0

# texcoords
vt 0.845703 0.5
vt 0.849609 0.5
vt 0.853516 0.5
vt 0.994141 0.5

# verts
v -3 7 3
v -3 7 -3
v -3 8 3
v -3 8 -3
v -3 9 3
v -3 9 -3
v -3 10 3
v -3 10 -3
v -3 11 3
v -3 11 -3
v -3 12 3
v -3 12 -3
v -3 13 3
v -3 13 -3
v -3 14 3
v -3 14 -3
v -2 0 2
v -2 0 -2
v -2 7 2
v -2 7 -2
v 2 0 2
v 2 0 -2
v 2 7 2
v 2 7 -2
v 3 7 3
v 3 7 -3
v 3 8 3
v 3 8 -3
v 3 9 3
v 3 9 -3
v 3 10 3
v 3 10 -3
v 3 11 3
v 3 11 -3
v 3 12 3
v 3 12 -3
v 3 13 3
v 3 13 -3
v 3 14 3
v 3 14 -3
v -3 7 3
v -3 8 3
v -3 9 3
v -3 10 3
v -3 11 3
v -3 12 3
v -3 13 3
v -3 14 3
v 3 7 3
v 3 8 3
v 3 9 3
v 3 10 3
v 3 11 3
v 3 12 3
v 3 13 3
v 3 14 3
v -2 0 2
v -2 7 2
v 2 0 2
v 2 7 2
v -2 0 -2
v -2 7 -2
v 2 0 -2
v 2 7 -2
v -3 7 -3
v -3 8 -3
v -3 9 -3
v -3 10 -3
v -3 11 -3
v -3 12 -3
v -3 13 -3
v -3 14 -3
v 3 7 -3
v 3 8 -3
v 3 9 -3
v 3 10 -3
v 3 11 -3
v 3 12 -3
v 3 13 -3
v 3 14 -3
v -2 0 2
v 2 0 2
v -2 0 -2
v 2 0 -2
v -3 7 3
v 3 7 3
v -2 7 2
v 2 7 2
v -2 7 -2
v 2 7 -2
v -3 7 -3
v 3 7 -3
v -3 14 3
v 3 14 3
v -3 14 -3
v 3 14 -3

# faces
f 3/1/1 2/1/1 1/1/1
f 4/1/1 2/1/1 3/1/1
f 5/2/1 4/2/1 3/2/1
f 6/2/1 4/2/1 5/2/1
f 7/1/1 6/1/1 5/1/1
f 8/1/1 6/1/1 7/1/1
f 9/2/1 8/2/1 7/2/1
f 10/2/1 8/2/1 9/2/1
f 11/1/1 10/1/1 9/1/1
f 12/1/1 10/1/1 11/1/1
f 13/2/1 12/2/1 11/2/1
f 14/2/1 12/2/1 13/2/1
f 15/3/1 14/3/1 13/3/1
f 16/3/1 14/3/1 15/3/1
f 19/4/1 18/4/1 17/4/1
f 20/4/1 18/4/1 19/4/1
f 21/4/2 22/4/2 23/4/2
f 23/4/2 22/4/2 24/4/2
f 25/1/2 26/1/2 27/1/2
f 27/1/2 26/1/2 28/1/2
f 27/2/2 28/2/2 29/2/2
f 29/2/2 28/2/2 30/2/2
f 29/1/2 30/1/2 31/1/2
f 31/1/2 30/1/2 32/1/2
f 31/2/2 32/2/2 33/2/2
f 33/2/2 32/2/2 34/2/2
f 33/1/2 34/1/2 35/1/2
f 35/1/2 34/1/2 36/1/2
f 35/2/2 36/2/2 37/2/2
f 37/2/2 36/2/2 38/2/2
f 37/3/2 38/3/2 39/3/2
f 39/3/2 38/3/2 40/3/2
f 49/1/3 42/1/3 41/1/3
f 50/2/3 43/2/3 42/2/3
f 50/1/3 42/1/3 49/1/3
f 51/1/3 44/1/3 43/1/3
f 51/2/3 43/2/3 50/2/3
f 52/2/3 45/2/3 44/2/3
f 52/1/3 44/1/3 51/1/3
f 53/1/3 46/1/3 45/1/3
f 53/2/3 45/2/3 52/2/3
f 54/2/3 47/2/3 46/2/3
f 54/1/3 46/1/3 53/1/3
f 55/3/3 48/3/3 47/3/3
f 55/2/3 47/2/3 54/2/3
f 56/3/3 48/3/3 55/3/3
f 59/4/3 58/4/3 57/4/3
f 60/4/3 58/4/3 59/4/3
f 61/4/4 62/4/4 63/4/4
f 63/4/4 62/4/4 64/4/4
f 65/1/4 66/1/4 73/1/4
f 66/2/4 67/2/4 74/2/4
f 73/1/4 66/1/4 74/1/4
f 67/1/4 68/1/4 75/1/4
f 74/2/4 67/2/4 75/2/4
f 68/2/4 69/2/4 76/2/4
f 75/1/4 68/1/4 76/1/4
f 69/1/4 70/1/4 77/1/4
f 76/2/4 69/2/4 77/2/4
f 70/2/4 71/2/4 78/2/4
f 77/1/4 70/1/4 78/1/4
f 71/3/4 72/3/4 79/3/4
f 78/2/4 71/2/4 79/2/4
f 79/3/4 72/3/4 80/3/4
f 83/4/5 82/4/5 81/4/5
f 84/4/5 82/4/5 83/4/5
f 87/1/5 86/1/5 85/1/5
f 88/1/5 86/1/5 87/1/5
f 89/1/5 87/1/5 85/1/5
f 90/1/5 86/1/5 88/1/5
f 91/1/5 89/1/5 85/1/5
f 91/1/5 90/1/5 89/1/5
f 92/1/5 86/1/5 90/1/5
f 92/1/5 90/1/5 91/1/5
f 93/3/6 94/3/6 95/3/6
f 95/3/6 94/3/6 96/3/6
