# MagicaVoxel @ ephtracy

# material
mtllib gold ingot.mtl
usemtl palette

# normals
vn -1 0 0
vn 1 0 0
vn 0 0 1
vn 0 0 -1
vn 0 -1 0
vn 0 1 0

# texcoords
vt 0.947266 0.5
vt 0.970703 0.5
vt 0.974609 0.5
vt 0.978516 0.5

# verts
v -3 0 6
v -3 0 3
v -3 0 2
v -3 0 1
v -3 0 -3
v -3 0 -6
v -3 1 5
v -3 1 3
v -3 1 2
v -3 1 1
v -3 1 -0
v -3 1 -3
v -3 1 -5
v -3 2 3
v -3 2 2
v -3 2 1
v -3 2 -0
v -3 2 -1
v -3 2 -3
v -3 2 -4
v -3 3 3
v -3 3 2
v -3 3 1
v -3 3 -0
v -3 3 -1
v -3 3 -3
v -3 3 -4
v -3 4 6
v -3 4 5
v -3 4 3
v -3 4 2
v -3 4 -0
v -3 4 -3
v -3 4 -5
v -3 4 -6
v -3 5 5
v -3 5 3
v -3 5 2
v -3 5 -0
v -3 5 -3
v -3 5 -5
v -2 4 6
v -2 4 5
v -2 4 -5
v -2 4 -6
v -2 5 6
v -2 5 5
v -2 5 -5
v -2 5 -6
v 2 4 6
v 2 4 5
v 2 4 -5
v 2 4 -6
v 2 5 6
v 2 5 5
v 2 5 -5
v 2 5 -6
v 3 0 6
v 3 0 4
v 3 0 3
v 3 0 1
v 3 0 -2
v 3 0 -6
v 3 1 5
v 3 1 4
v 3 1 3
v 3 1 1
v 3 1 -2
v 3 1 -5
v 3 2 5
v 3 2 4
v 3 2 3
v 3 2 2
v 3 2 1
v 3 2 -1
v 3 2 -2
v 3 3 5
v 3 3 4
v 3 3 3
v 3 3 2
v 3 3 1
v 3 3 -1
v 3 3 -2
v 3 4 6
v 3 4 5
v 3 4 4
v 3 4 3
v 3 4 1
v 3 4 -2
v 3 4 -5
v 3 4 -6
v 3 5 5
v 3 5 4
v 3 5 3
v 3 5 1
v 3 5 -2
v 3 5 -5
v -3 0 6
v -3 4 6
v -2 1 6
v -2 4 6
v -2 5 6
v 2 1 6
v 2 4 6
v 2 5 6
v 3 0 6
v 3 4 6
v -3 4 5
v -3 5 5
v -2 4 5
v -2 5 5
v 2 4 5
v 2 5 5
v 3 4 5
v 3 5 5
v -3 4 -5
v -3 5 -5
v -2 4 -5
v -2 5 -5
v 2 4 -5
v 2 5 -5
v 3 4 -5
v 3 5 -5
v -3 0 -6
v -3 4 -6
v -2 1 -6
v -2 4 -6
v -2 5 -6
v 2 1 -6
v 2 4 -6
v 2 5 -6
v 3 0 -6
v 3 4 -6
v -3 0 6
v 3 0 6
v -2 0 5
v 2 0 5
v 2 0 4
v 3 0 4
v -3 0 3
v -2 0 3
v 2 0 3
v 3 0 3
v -3 0 2
v -2 0 2
v -3 0 1
v -2 0 1
v 2 0 1
v 3 0 1
v 2 0 -2
v 3 0 -2
v -3 0 -3
v -2 0 -3
v -2 0 -5
v 2 0 -5
v -3 0 -6
v 3 0 -6
v -3 4 6
v -2 4 6
v 2 4 6
v 3 4 6
v -3 4 5
v -2 4 5
v 2 4 5
v 3 4 5
v -3 4 -5
v -2 4 -5
v 2 4 -5
v 3 4 -5
v -3 4 -6
v -2 4 -6
v 2 4 -6
v 3 4 -6
v -2 5 6
v 2 5 6
v -3 5 5
v -2 5 5
v 2 5 5
v 3 5 5
v -1 5 4
v 0 5 4
v 1 5 4
v 2 5 4
v 3 5 4
v -3 5 3
v -2 5 3
v -1 5 3
v 0 5 3
v 1 5 3
v 2 5 3
v 3 5 3
v -3 5 2
v -2 5 2
v -1 5 2
v 0 5 2
v 1 5 2
v -1 5 1
v 0 5 1
v 1 5 1
v 2 5 1
v 3 5 1
v -3 5 -0
v -2 5 -0
v -1 5 -0
v 0 5 -0
v 1 5 -0
v -1 5 -2
v 0 5 -2
v 1 5 -2
v 2 5 -2
v 3 5 -2
v -3 5 -3
v -2 5 -3
v -1 5 -3
v 0 5 -3
v 1 5 -3
v -3 5 -5
v -2 5 -5
v 2 5 -5
v 3 5 -5
v -2 5 -6
v 2 5 -6

# faces
f 7/3/1 2/3/1 1/3/1
f 8/1/1 3/1/1 2/1/1
f 8/3/1 2/3/1 7/3/1
f 9/3/1 4/3/1 3/3/1
f 9/1/1 3/1/1 8/1/1
f 10/1/1 5/1/1 4/1/1
f 10/3/1 4/3/1 9/3/1
f 11/1/1 5/1/1 10/1/1
f 12/3/1 6/3/1 5/3/1
f 12/1/1 5/1/1 11/1/1
f 13/3/1 6/3/1 12/3/1
f 14/2/1 8/2/1 7/2/1
f 14/4/1 9/4/1 8/4/1
f 15/2/1 11/2/1 10/2/1
f 15/4/1 9/4/1 14/4/1
f 15/2/1 10/2/1 9/2/1
f 16/2/1 11/2/1 15/2/1
f 17/4/1 12/4/1 11/4/1
f 17/2/1 11/2/1 16/2/1
f 18/4/1 12/4/1 17/4/1
f 19/2/1 13/2/1 12/2/1
f 19/4/1 12/4/1 18/4/1
f 20/2/1 13/2/1 19/2/1
f 21/2/1 14/2/1 7/2/1
f 21/2/1 15/2/1 14/2/1
f 22/4/1 16/4/1 15/4/1
f 22/2/1 15/2/1 21/2/1
f 23/2/1 18/2/1 17/2/1
f 23/4/1 16/4/1 22/4/1
f 23/2/1 17/2/1 16/2/1
f 24/2/1 18/2/1 23/2/1
f 25/4/1 20/4/1 19/4/1
f 25/2/1 18/2/1 24/2/1
f 25/4/1 19/4/1 18/4/1
f 26/4/1 20/4/1 25/4/1
f 27/2/1 13/2/1 20/2/1
f 27/4/1 20/4/1 26/4/1
f 28/3/1 7/3/1 1/3/1
f 29/2/1 21/2/1 7/2/1
f 29/3/1 7/3/1 28/3/1
f 30/4/1 22/4/1 21/4/1
f 30/2/1 21/2/1 29/2/1
f 31/2/1 24/2/1 23/2/1
f 31/4/1 22/4/1 30/4/1
f 31/2/1 23/2/1 22/2/1
f 32/4/1 26/4/1 25/4/1
f 32/2/1 24/2/1 31/2/1
f 32/4/1 25/4/1 24/4/1
f 33/2/1 27/2/1 26/2/1
f 33/4/1 26/4/1 32/4/1
f 34/2/1 13/2/1 27/2/1
f 34/2/1 27/2/1 33/2/1
f 34/3/1 6/3/1 13/3/1
f 35/3/1 6/3/1 34/3/1
f 36/3/1 30/3/1 29/3/1
f 37/1/1 31/1/1 30/1/1
f 37/3/1 30/3/1 36/3/1
f 38/3/1 32/3/1 31/3/1
f 38/1/1 31/1/1 37/1/1
f 39/1/1 33/1/1 32/1/1
f 39/3/1 32/3/1 38/3/1
f 40/3/1 34/3/1 33/3/1
f 40/1/1 33/1/1 39/1/1
f 41/3/1 34/3/1 40/3/1
f 46/3/1 43/3/1 42/3/1
f 47/3/1 43/3/1 46/3/1
f 48/3/1 45/3/1 44/3/1
f 49/3/1 45/3/1 48/3/1
f 50/3/2 51/3/2 54/3/2
f 54/3/2 51/3/2 55/3/2
f 52/3/2 53/3/2 56/3/2
f 56/3/2 53/3/2 57/3/2
f 58/3/2 59/3/2 64/3/2
f 59/1/2 60/1/2 65/1/2
f 64/3/2 59/3/2 65/3/2
f 60/3/2 61/3/2 66/3/2
f 65/1/2 60/1/2 66/1/2
f 61/1/2 62/1/2 67/1/2
f 66/3/2 61/3/2 67/3/2
f 62/3/2 63/3/2 68/3/2
f 67/1/2 62/1/2 68/1/2
f 68/3/2 63/3/2 69/3/2
f 58/3/2 64/3/2 70/3/2
f 64/2/2 65/2/2 70/2/2
f 65/4/2 66/4/2 71/4/2
f 70/2/2 65/2/2 71/2/2
f 66/2/2 67/2/2 72/2/2
f 71/4/2 66/4/2 72/4/2
f 72/2/2 67/2/2 73/2/2
f 67/4/2 68/4/2 74/4/2
f 73/2/2 67/2/2 74/2/2
f 74/4/2 68/4/2 75/4/2
f 68/2/2 69/2/2 76/2/2
f 75/4/2 68/4/2 76/4/2
f 70/4/2 71/4/2 77/4/2
f 58/3/2 70/3/2 77/3/2
f 72/2/2 73/2/2 78/2/2
f 77/4/2 71/4/2 78/4/2
f 71/2/2 72/2/2 78/2/2
f 78/2/2 73/2/2 79/2/2
f 74/4/2 75/4/2 80/4/2
f 79/2/2 73/2/2 80/2/2
f 73/4/2 74/4/2 80/4/2
f 80/4/2 75/4/2 81/4/2
f 75/2/2 76/2/2 82/2/2
f 81/4/2 75/4/2 82/4/2
f 76/2/2 69/2/2 83/2/2
f 82/2/2 76/2/2 83/2/2
f 58/3/2 77/3/2 84/3/2
f 77/2/2 78/2/2 85/2/2
f 84/3/2 77/3/2 85/3/2
f 78/4/2 79/4/2 86/4/2
f 85/2/2 78/2/2 86/2/2
f 80/2/2 81/2/2 87/2/2
f 86/4/2 79/4/2 87/4/2
f 79/2/2 80/2/2 87/2/2
f 81/4/2 82/4/2 88/4/2
f 87/2/2 81/2/2 88/2/2
f 82/4/2 83/4/2 88/4/2
f 83/2/2 69/2/2 89/2/2
f 88/4/2 83/4/2 89/4/2
f 69/3/2 63/3/2 90/3/2
f 89/2/2 69/2/2 90/2/2
f 90/3/2 63/3/2 91/3/2
f 85/3/2 86/3/2 92/3/2
f 86/1/2 87/1/2 93/1/2
f 92/3/2 86/3/2 93/3/2
f 87/3/2 88/3/2 94/3/2
f 93/1/2 87/1/2 94/1/2
f 88/1/2 89/1/2 95/1/2
f 94/3/2 88/3/2 95/3/2
f 89/3/2 90/3/2 96/3/2
f 95/1/2 89/1/2 96/1/2
f 96/3/2 90/3/2 97/3/2
f 100/3/3 99/3/3 98/3/3
f 101/3/3 99/3/3 100/3/3
f 103/3/3 100/3/3 98/3/3
f 103/2/3 101/2/3 100/2/3
f 104/3/3 102/3/3 101/3/3
f 104/2/3 101/2/3 103/2/3
f 105/3/3 102/3/3 104/3/3
f 106/3/3 103/3/3 98/3/3
f 106/3/3 104/3/3 103/3/3
f 107/3/3 104/3/3 106/3/3
f 110/3/3 109/3/3 108/3/3
f 111/3/3 109/3/3 110/3/3
f 114/3/3 113/3/3 112/3/3
f 115/3/3 113/3/3 114/3/3
f 116/3/4 117/3/4 118/3/4
f 118/3/4 117/3/4 119/3/4
f 120/3/4 121/3/4 122/3/4
f 122/3/4 121/3/4 123/3/4
f 124/3/4 125/3/4 126/3/4
f 126/3/4 125/3/4 127/3/4
f 124/3/4 126/3/4 129/3/4
f 126/2/4 127/2/4 129/2/4
f 127/3/4 128/3/4 130/3/4
f 129/2/4 127/2/4 130/2/4
f 130/3/4 128/3/4 131/3/4
f 124/3/4 129/3/4 132/3/4
f 129/3/4 130/3/4 132/3/4
f 132/3/4 130/3/4 133/3/4
f 136/3/5 135/3/5 134/3/5
f 137/3/5 135/3/5 136/3/5
f 138/2/5 137/2/5 136/2/5
f 138/3/5 135/3/5 137/3/5
f 139/3/5 135/3/5 138/3/5
f 140/3/5 136/3/5 134/3/5
f 141/2/5 138/2/5 136/2/5
f 141/3/5 136/3/5 140/3/5
f 142/1/5 139/1/5 138/1/5
f 142/2/5 138/2/5 141/2/5
f 143/1/5 139/1/5 142/1/5
f 144/1/5 141/1/5 140/1/5
f 145/2/5 142/2/5 141/2/5
f 145/1/5 141/1/5 144/1/5
f 146/3/5 145/3/5 144/3/5
f 147/2/5 142/2/5 145/2/5
f 147/3/5 145/3/5 146/3/5
f 148/3/5 143/3/5 142/3/5
f 148/2/5 142/2/5 147/2/5
f 149/3/5 143/3/5 148/3/5
f 150/2/5 148/2/5 147/2/5
f 150/1/5 149/1/5 148/1/5
f 151/1/5 149/1/5 150/1/5
f 152/1/5 147/1/5 146/1/5
f 153/2/5 150/2/5 147/2/5
f 153/1/5 147/1/5 152/1/5
f 154/3/5 153/3/5 152/3/5
f 154/2/5 150/2/5 153/2/5
f 155/3/5 151/3/5 150/3/5
f 155/2/5 150/2/5 154/2/5
f 156/3/5 154/3/5 152/3/5
f 156/3/5 155/3/5 154/3/5
f 157/3/5 151/3/5 155/3/5
f 157/3/5 155/3/5 156/3/5
f 158/3/6 159/3/6 162/3/6
f 162/3/6 159/3/6 163/3/6
f 160/3/6 161/3/6 164/3/6
f 164/3/6 161/3/6 165/3/6
f 166/3/6 167/3/6 170/3/6
f 170/3/6 167/3/6 171/3/6
f 168/3/6 169/3/6 172/3/6
f 172/3/6 169/3/6 173/3/6
f 174/3/6 175/3/6 177/3/6
f 177/3/6 175/3/6 178/3/6
f 177/2/6 178/2/6 180/2/6
f 180/2/6 178/2/6 181/2/6
f 181/2/6 178/2/6 182/2/6
f 178/3/6 179/3/6 183/3/6
f 182/2/6 178/2/6 183/2/6
f 183/3/6 179/3/6 184/3/6
f 176/3/6 177/3/6 185/3/6
f 177/2/6 180/2/6 186/2/6
f 185/3/6 177/3/6 186/3/6
f 180/4/6 181/4/6 187/4/6
f 186/2/6 180/2/6 187/2/6
f 181/2/6 182/2/6 188/2/6
f 187/4/6 181/4/6 188/4/6
f 182/4/6 183/4/6 189/4/6
f 188/2/6 182/2/6 189/2/6
f 183/1/6 184/1/6 190/1/6
f 189/4/6 183/4/6 190/4/6
f 190/1/6 184/1/6 191/1/6
f 185/1/6 186/1/6 192/1/6
f 186/4/6 187/4/6 193/4/6
f 192/1/6 186/1/6 193/1/6
f 187/2/6 188/2/6 194/2/6
f 193/4/6 187/4/6 194/4/6
f 188/4/6 189/4/6 195/4/6
f 194/2/6 188/2/6 195/2/6
f 189/2/6 190/2/6 196/2/6
f 195/4/6 189/4/6 196/4/6
f 193/2/6 194/2/6 197/2/6
f 194/2/6 195/2/6 197/2/6
f 195/2/6 196/2/6 197/2/6
f 197/2/6 196/2/6 198/2/6
f 196/2/6 190/2/6 199/2/6
f 198/2/6 196/2/6 199/2/6
f 190/3/6 191/3/6 200/3/6
f 199/2/6 190/2/6 200/2/6
f 200/3/6 191/3/6 201/3/6
f 192/3/6 193/3/6 202/3/6
f 193/2/6 197/2/6 203/2/6
f 202/3/6 193/3/6 203/3/6
f 197/4/6 198/4/6 204/4/6
f 203/2/6 197/2/6 204/2/6
f 198/2/6 199/2/6 205/2/6
f 204/4/6 198/4/6 205/4/6
f 199/4/6 200/4/6 206/4/6
f 205/2/6 199/2/6 206/2/6
f 203/4/6 204/4/6 207/4/6
f 204/4/6 205/4/6 207/4/6
f 205/4/6 206/4/6 207/4/6
f 207/4/6 206/4/6 208/4/6
f 206/4/6 200/4/6 209/4/6
f 208/4/6 206/4/6 209/4/6
f 200/1/6 201/1/6 210/1/6
f 209/4/6 200/4/6 210/4/6
f 210/1/6 201/1/6 211/1/6
f 202/1/6 203/1/6 212/1/6
f 203/4/6 207/4/6 213/4/6
f 212/1/6 203/1/6 213/1/6
f 207/2/6 208/2/6 214/2/6
f 213/4/6 207/4/6 214/4/6
f 208/4/6 209/4/6 215/4/6
f 214/2/6 208/2/6 215/2/6
f 209/2/6 210/2/6 216/2/6
f 215/4/6 209/4/6 216/4/6
f 212/3/6 213/3/6 217/3/6
f 213/2/6 214/2/6 218/2/6
f 217/3/6 213/3/6 218/3/6
f 214/2/6 215/2/6 218/2/6
f 215/2/6 216/2/6 218/2/6
f 216/2/6 210/2/6 219/2/6
f 218/2/6 216/2/6 219/2/6
f 210/3/6 211/3/6 219/3/6
f 219/3/6 211/3/6 220/3/6
f 218/3/6 219/3/6 221/3/6
f 221/3/6 219/3/6 222/3/6
