# MagicaVoxel @ ephtracy

# material
mtllib NOT crank.mtl
usemtl palette

# normals
vn -1 0 0
vn 1 0 0
vn 0 0 1
vn 0 0 -1
vn 0 -1 0
vn 0 1 0

# texcoords
vt 0.958984 0.5
vt 0.970703 0.5
vt 0.990234 0.5

# verts
v -4 2 -1.5
v -4 2 -2.5
v -4 5 -1.5
v -4 5 -2.5
v -3 1 -1.5
v -3 1 -2.5
v -3 2 -1.5
v -3 2 -2.5
v -3 5 -1.5
v -3 5 -2.5
v -3 6 -1.5
v -3 6 -2.5
v -2 0 -1.5
v -2 0 -2.5
v -2 1 -1.5
v -2 1 -2.5
v -2 6 -1.5
v -2 6 -2.5
v -2 7 -1.5
v -2 7 -2.5
v -1 1 -1.5
v -1 1 -2.5
v -1 3 -1.5
v -1 3 -2.5
v -1 4 -1.5
v -1 4 -2.5
v -1 6 -1.5
v -1 6 -2.5
v 1 1 -1.5
v 1 1 -2.5
v 1 2 -1.5
v 1 2 -2.5
v 1 3 2.5
v 1 3 0.5
v 1 4 2.5
v 1 4 0.5
v 1 5 -1.5
v 1 5 -2.5
v 1 6 -1.5
v 1 6 -2.5
v 2 2 2.5
v 2 2 0.5
v 2 2 -1.5
v 2 2 -2.5
v 2 3 2.5
v 2 3 0.5
v 2 3 -1.5
v 2 3 -2.5
v 2 4 2.5
v 2 4 0.5
v 2 4 -1.5
v 2 4 -2.5
v 2 5 2.5
v 2 5 0.5
v 2 5 -1.5
v 2 5 -2.5
v -3 2 -1.5
v -3 2 -2.5
v -3 3 -1.5
v -3 3 -2.5
v -3 4 -1.5
v -3 4 -2.5
v -3 5 -1.5
v -3 5 -2.5
v -2 1 -1.5
v -2 1 -2.5
v -2 2 -1.5
v -2 2 -2.5
v -2 5 -1.5
v -2 5 -2.5
v -2 6 -1.5
v -2 6 -2.5
v 0 1 -1.5
v 0 1 -2.5
v 0 3 -1.5
v 0 3 -2.5
v 0 4 -1.5
v 0 4 -2.5
v 0 6 -1.5
v 0 6 -2.5
v 1 0 -1.5
v 1 0 -2.5
v 1 1 -1.5
v 1 1 -2.5
v 1 6 -1.5
v 1 6 -2.5
v 1 7 -1.5
v 1 7 -2.5
v 2 1 -1.5
v 2 1 -2.5
v 2 2 -1.5
v 2 2 -2.5
v 2 5 -1.5
v 2 5 -2.5
v 2 6 -1.5
v 2 6 -2.5
v 3 2 2.5
v 3 2 0.5
v 3 2 -1.5
v 3 2 -2.5
v 3 3 2.5
v 3 3 0.5
v 3 3 -1.5
v 3 4 2.5
v 3 4 0.5
v 3 4 -1.5
v 3 5 2.5
v 3 5 0.5
v 3 5 -1.5
v 3 5 -2.5
v 4 3 2.5
v 4 3 0.5
v 4 4 2.5
v 4 4 0.5
v 1 3 2.5
v 1 4 2.5
v 2 2 2.5
v 2 3 2.5
v 2 4 2.5
v 2 5 2.5
v 3 2 2.5
v 3 3 2.5
v 3 4 2.5
v 3 5 2.5
v 4 3 2.5
v 4 4 2.5
v -4 2 -1.5
v -4 5 -1.5
v -3 1 -1.5
v -3 2 -1.5
v -3 3 -1.5
v -3 4 -1.5
v -3 5 -1.5
v -3 6 -1.5
v -2 0 -1.5
v -2 1 -1.5
v -2 2 -1.5
v -2 5 -1.5
v -2 6 -1.5
v -2 7 -1.5
v -1 1 -1.5
v -1 3 -1.5
v -1 4 -1.5
v -1 6 -1.5
v 0 1 -1.5
v 0 3 -1.5
v 0 4 -1.5
v 0 6 -1.5
v 1 0 -1.5
v 1 1 -1.5
v 1 2 -1.5
v 1 5 -1.5
v 1 6 -1.5
v 1 7 -1.5
v 2 1 -1.5
v 2 2 -1.5
v 2 3 -1.5
v 2 4 -1.5
v 2 5 -1.5
v 2 6 -1.5
v 3 2 -1.5
v 3 3 -1.5
v 3 4 -1.5
v 3 5 -1.5
v 1 3 0.5
v 1 4 0.5
v 2 2 0.5
v 2 3 0.5
v 2 4 0.5
v 2 5 0.5
v 3 2 0.5
v 3 3 0.5
v 3 4 0.5
v 3 5 0.5
v 4 3 0.5
v 4 4 0.5
v -4 2 -2.5
v -4 5 -2.5
v -3 1 -2.5
v -3 2 -2.5
v -3 3 -2.5
v -3 4 -2.5
v -3 5 -2.5
v -3 6 -2.5
v -2 0 -2.5
v -2 1 -2.5
v -2 2 -2.5
v -2 5 -2.5
v -2 6 -2.5
v -2 7 -2.5
v -1 1 -2.5
v -1 3 -2.5
v -1 4 -2.5
v -1 6 -2.5
v 0 1 -2.5
v 0 3 -2.5
v 0 4 -2.5
v 0 6 -2.5
v 1 0 -2.5
v 1 1 -2.5
v 1 2 -2.5
v 1 5 -2.5
v 1 6 -2.5
v 1 7 -2.5
v 2 1 -2.5
v 2 2 -2.5
v 2 3 -2.5
v 2 4 -2.5
v 2 5 -2.5
v 2 6 -2.5
v 3 2 -2.5
v 3 5 -2.5
v -2 0 -1.5
v 1 0 -1.5
v -2 0 -2.5
v 1 0 -2.5
v -3 1 -1.5
v -2 1 -1.5
v 1 1 -1.5
v 2 1 -1.5
v -3 1 -2.5
v -2 1 -2.5
v 1 1 -2.5
v 2 1 -2.5
v 2 2 2.5
v 3 2 2.5
v 2 2 0.5
v 3 2 0.5
v -4 2 -1.5
v -3 2 -1.5
v 2 2 -1.5
v 3 2 -1.5
v -4 2 -2.5
v -3 2 -2.5
v 2 2 -2.5
v 3 2 -2.5
v 1 3 2.5
v 2 3 2.5
v 3 3 2.5
v 4 3 2.5
v 1 3 0.5
v 2 3 0.5
v 3 3 0.5
v 4 3 0.5
v -3 3 -1.5
v -1 3 -1.5
v 0 3 -1.5
v 2 3 -1.5
v 3 3 -1.5
v -3 3 -2.5
v -1 3 -2.5
v 0 3 -2.5
v 2 3 -2.5
v -3 5 -1.5
v -2 5 -1.5
v 1 5 -1.5
v 2 5 -1.5
v -3 5 -2.5
v -2 5 -2.5
v 1 5 -2.5
v 2 5 -2.5
v -2 6 -1.5
v -1 6 -1.5
v 0 6 -1.5
v 1 6 -1.5
v -2 6 -2.5
v -1 6 -2.5
v 0 6 -2.5
v 1 6 -2.5
v -2 1 -1.5
v -1 1 -1.5
v 0 1 -1.5
v 1 1 -1.5
v -2 1 -2.5
v -1 1 -2.5
v 0 1 -2.5
v 1 1 -2.5
v -3 2 -1.5
v -2 2 -1.5
v 1 2 -1.5
v 2 2 -1.5
v -3 2 -2.5
v -2 2 -2.5
v 1 2 -2.5
v 2 2 -2.5
v 1 4 2.5
v 2 4 2.5
v 3 4 2.5
v 4 4 2.5
v 1 4 0.5
v 2 4 0.5
v 3 4 0.5
v 4 4 0.5
v -3 4 -1.5
v -1 4 -1.5
v 0 4 -1.5
v 2 4 -1.5
v 3 4 -1.5
v -3 4 -2.5
v -1 4 -2.5
v 0 4 -2.5
v 2 4 -2.5
v 2 5 2.5
v 3 5 2.5
v 2 5 0.5
v 3 5 0.5
v -4 5 -1.5
v -3 5 -1.5
v 2 5 -1.5
v 3 5 -1.5
v -4 5 -2.5
v -3 5 -2.5
v 2 5 -2.5
v 3 5 -2.5
v -3 6 -1.5
v -2 6 -1.5
v 1 6 -1.5
v 2 6 -1.5
v -3 6 -2.5
v -2 6 -2.5
v 1 6 -2.5
v 2 6 -2.5
v -2 7 -1.5
v 1 7 -1.5
v -2 7 -2.5
v 1 7 -2.5

# faces
f 3/1/1 2/1/1 1/1/1
f 4/1/1 2/1/1 3/1/1
f 7/1/1 6/1/1 5/1/1
f 8/1/1 6/1/1 7/1/1
f 11/1/1 10/1/1 9/1/1
f 12/1/1 10/1/1 11/1/1
f 15/1/1 14/1/1 13/1/1
f 16/1/1 14/1/1 15/1/1
f 19/1/1 18/1/1 17/1/1
f 20/1/1 18/1/1 19/1/1
f 23/3/1 22/3/1 21/3/1
f 24/3/1 22/3/1 23/3/1
f 27/3/1 26/3/1 25/3/1
f 28/3/1 26/3/1 27/3/1
f 31/1/1 30/1/1 29/1/1
f 32/1/1 30/1/1 31/1/1
f 35/2/1 34/2/1 33/2/1
f 36/2/1 34/2/1 35/2/1
f 39/1/1 38/1/1 37/1/1
f 40/1/1 38/1/1 39/1/1
f 45/2/1 42/2/1 41/2/1
f 46/2/1 42/2/1 45/2/1
f 47/1/1 44/1/1 43/1/1
f 48/1/1 44/1/1 47/1/1
f 50/2/1 47/2/1 46/2/1
f 51/2/1 47/2/1 50/2/1
f 53/2/1 50/2/1 49/2/1
f 54/2/1 50/2/1 53/2/1
f 55/1/1 52/1/1 51/1/1
f 56/1/1 52/1/1 55/1/1
f 57/1/2 58/1/2 59/1/2
f 59/1/2 58/1/2 60/1/2
f 61/1/2 62/1/2 63/1/2
f 63/1/2 62/1/2 64/1/2
f 65/1/2 66/1/2 67/1/2
f 67/1/2 66/1/2 68/1/2
f 69/1/2 70/1/2 71/1/2
f 71/1/2 70/1/2 72/1/2
f 73/3/2 74/3/2 75/3/2
f 75/3/2 74/3/2 76/3/2
f 77/3/2 78/3/2 79/3/2
f 79/3/2 78/3/2 80/3/2
f 81/1/2 82/1/2 83/1/2
f 83/1/2 82/1/2 84/1/2
f 85/1/2 86/1/2 87/1/2
f 87/1/2 86/1/2 88/1/2
f 89/1/2 90/1/2 91/1/2
f 91/1/2 90/1/2 92/1/2
f 93/1/2 94/1/2 95/1/2
f 95/1/2 94/1/2 96/1/2
f 97/2/2 98/2/2 101/2/2
f 101/2/2 98/2/2 102/2/2
f 99/1/2 100/1/2 103/1/2
f 102/2/2 103/2/2 105/2/2
f 103/1/2 100/1/2 106/1/2
f 105/2/2 103/2/2 106/2/2
f 104/2/2 105/2/2 107/2/2
f 107/2/2 105/2/2 108/2/2
f 106/1/2 100/1/2 109/1/2
f 109/1/2 100/1/2 110/1/2
f 111/2/2 112/2/2 113/2/2
f 113/2/2 112/2/2 114/2/2
f 118/2/3 116/2/3 115/2/3
f 119/2/3 116/2/3 118/2/3
f 121/2/3 118/2/3 117/2/3
f 121/2/3 120/2/3 119/2/3
f 121/2/3 119/2/3 118/2/3
f 122/2/3 120/2/3 121/2/3
f 123/2/3 120/2/3 122/2/3
f 124/2/3 120/2/3 123/2/3
f 125/2/3 123/2/3 122/2/3
f 126/2/3 123/2/3 125/2/3
f 130/1/3 128/1/3 127/1/3
f 131/1/3 128/1/3 130/1/3
f 132/1/3 128/1/3 131/1/3
f 133/1/3 128/1/3 132/1/3
f 136/1/3 130/1/3 129/1/3
f 137/1/3 130/1/3 136/1/3
f 138/1/3 134/1/3 133/1/3
f 139/1/3 134/1/3 138/1/3
f 141/1/3 136/1/3 135/1/3
f 142/3/3 132/3/3 131/3/3
f 143/3/3 132/3/3 142/3/3
f 144/1/3 140/1/3 139/1/3
f 145/1/3 141/1/3 135/1/3
f 145/3/3 142/3/3 141/3/3
f 146/2/3 143/2/3 142/2/3
f 146/3/3 142/3/3 145/3/3
f 147/3/3 144/3/3 143/3/3
f 147/2/3 143/2/3 146/2/3
f 148/1/3 140/1/3 144/1/3
f 148/3/3 144/3/3 147/3/3
f 149/1/3 145/1/3 135/1/3
f 150/1/3 145/1/3 149/1/3
f 153/1/3 140/1/3 148/1/3
f 154/1/3 140/1/3 153/1/3
f 155/1/3 151/1/3 150/1/3
f 156/1/3 151/1/3 155/1/3
f 157/3/3 147/3/3 146/3/3
f 158/3/3 147/3/3 157/3/3
f 159/1/3 153/1/3 152/1/3
f 160/1/3 153/1/3 159/1/3
f 161/1/3 157/1/3 156/1/3
f 162/1/3 157/1/3 161/1/3
f 163/1/3 159/1/3 158/1/3
f 164/1/3 159/1/3 163/1/3
f 165/2/4 166/2/4 168/2/4
f 168/2/4 166/2/4 169/2/4
f 167/2/4 168/2/4 171/2/4
f 171/2/4 168/2/4 172/2/4
f 169/2/4 170/2/4 173/2/4
f 173/2/4 170/2/4 174/2/4
f 172/2/4 173/2/4 175/2/4
f 175/2/4 173/2/4 176/2/4
f 177/1/4 178/1/4 180/1/4
f 180/1/4 178/1/4 181/1/4
f 181/1/4 178/1/4 182/1/4
f 182/1/4 178/1/4 183/1/4
f 179/1/4 180/1/4 186/1/4
f 186/1/4 180/1/4 187/1/4
f 183/1/4 184/1/4 188/1/4
f 188/1/4 184/1/4 189/1/4
f 185/1/4 186/1/4 191/1/4
f 181/3/4 182/3/4 192/3/4
f 192/3/4 182/3/4 193/3/4
f 189/1/4 190/1/4 194/1/4
f 185/1/4 191/1/4 195/1/4
f 191/3/4 192/3/4 195/3/4
f 192/2/4 193/2/4 196/2/4
f 195/3/4 192/3/4 196/3/4
f 193/3/4 194/3/4 197/3/4
f 196/2/4 193/2/4 197/2/4
f 194/1/4 190/1/4 198/1/4
f 197/3/4 194/3/4 198/3/4
f 185/1/4 195/1/4 199/1/4
f 199/1/4 195/1/4 200/1/4
f 198/1/4 190/1/4 203/1/4
f 203/1/4 190/1/4 204/1/4
f 200/1/4 201/1/4 205/1/4
f 205/1/4 201/1/4 206/1/4
f 196/3/4 197/3/4 207/3/4
f 207/3/4 197/3/4 208/3/4
f 202/1/4 203/1/4 209/1/4
f 209/1/4 203/1/4 210/1/4
f 207/1/4 208/1/4 211/1/4
f 208/1/4 209/1/4 211/1/4
f 206/1/4 207/1/4 211/1/4
f 211/1/4 209/1/4 212/1/4
f 215/1/5 214/1/5 213/1/5
f 216/1/5 214/1/5 215/1/5
f 221/1/5 218/1/5 217/1/5
f 222/1/5 218/1/5 221/1/5
f 223/1/5 220/1/5 219/1/5
f 224/1/5 220/1/5 223/1/5
f 227/2/5 226/2/5 225/2/5
f 228/2/5 226/2/5 227/2/5
f 233/1/5 230/1/5 229/1/5
f 234/1/5 230/1/5 233/1/5
f 235/1/5 232/1/5 231/1/5
f 236/1/5 232/1/5 235/1/5
f 241/2/5 238/2/5 237/2/5
f 242/2/5 238/2/5 241/2/5
f 243/2/5 240/2/5 239/2/5
f 244/2/5 240/2/5 243/2/5
f 248/2/5 243/2/5 242/2/5
f 249/2/5 243/2/5 248/2/5
f 250/3/5 246/3/5 245/3/5
f 251/3/5 246/3/5 250/3/5
f 252/3/5 248/3/5 247/3/5
f 253/3/5 248/3/5 252/3/5
f 258/1/5 255/1/5 254/1/5
f 259/1/5 255/1/5 258/1/5
f 260/1/5 257/1/5 256/1/5
f 261/1/5 257/1/5 260/1/5
f 266/1/5 263/1/5 262/1/5
f 267/1/5 263/1/5 266/1/5
f 268/1/5 265/1/5 264/1/5
f 269/1/5 265/1/5 268/1/5
f 270/1/6 271/1/6 274/1/6
f 274/1/6 271/1/6 275/1/6
f 272/1/6 273/1/6 276/1/6
f 276/1/6 273/1/6 277/1/6
f 278/1/6 279/1/6 282/1/6
f 282/1/6 279/1/6 283/1/6
f 280/1/6 281/1/6 284/1/6
f 284/1/6 281/1/6 285/1/6
f 286/2/6 287/2/6 290/2/6
f 290/2/6 287/2/6 291/2/6
f 288/2/6 289/2/6 292/2/6
f 292/2/6 289/2/6 293/2/6
f 291/2/6 292/2/6 297/2/6
f 297/2/6 292/2/6 298/2/6
f 294/3/6 295/3/6 299/3/6
f 299/3/6 295/3/6 300/3/6
f 296/3/6 297/3/6 301/3/6
f 301/3/6 297/3/6 302/3/6
f 303/2/6 304/2/6 305/2/6
f 305/2/6 304/2/6 306/2/6
f 307/1/6 308/1/6 311/1/6
f 311/1/6 308/1/6 312/1/6
f 309/1/6 310/1/6 313/1/6
f 313/1/6 310/1/6 314/1/6
f 315/1/6 316/1/6 319/1/6
f 319/1/6 316/1/6 320/1/6
f 317/1/6 318/1/6 321/1/6
f 321/1/6 318/1/6 322/1/6
f 323/1/6 324/1/6 325/1/6
f 325/1/6 324/1/6 326/1/6
